<svg width="18" height="18" viewBox="0 0 18 18" fill="none" xmlns="http://www.w3.org/2000/svg">
<path d="M8.99878 0C9.41995 0 9.82387 0.167309 10.1217 0.46512C10.4195 0.762932 10.5868 1.16685 10.5868 1.58802V7.41076H16.4095C16.8307 7.41076 17.2346 7.57807 17.5324 7.87588C17.8302 8.17369 17.9976 8.57761 17.9976 8.99878C17.9976 9.41995 17.8302 9.82387 17.5324 10.1217C17.2346 10.4195 16.8307 10.5868 16.4095 10.5868H10.5868V16.4095C10.5868 16.8307 10.4195 17.2346 10.1217 17.5324C9.82387 17.8302 9.41995 17.9976 8.99878 17.9976C8.57761 17.9976 8.17369 17.8302 7.87588 17.5324C7.57807 17.2346 7.41076 16.8307 7.41076 16.4095V10.5868H1.58802C1.16685 10.5868 0.762932 10.4195 0.46512 10.1217C0.167309 9.82387 0 9.41995 0 8.99878C0 8.57761 0.167309 8.17369 0.46512 7.87588C0.762932 7.57807 1.16685 7.41076 1.58802 7.41076H7.41076V1.58802C7.41076 1.16685 7.57807 0.762932 7.87588 0.46512C8.17369 0.167309 8.57761 0 8.99878 0Z" fill="#B09880"/>
</svg>
