<svg width="30" height="30" viewBox="0 0 30 30" fill="none" xmlns="http://www.w3.org/2000/svg">
<path d="M16.4224 8.25737C22.8239 9.97266 28.3224 10.21 28.7036 8.78741C29.0848 7.36485 24.2043 4.82111 17.8027 3.10582C11.4011 1.39052 5.90264 1.15321 5.52147 2.57578C5.14029 3.99834 10.0208 6.54207 16.4224 8.25737Z" stroke="#B09880" stroke-width="2" stroke-linecap="round" stroke-linejoin="round"/>
<path d="M5.52219 2.57617C4.75264 5.44816 8.20451 12.5074 10.0256 15.9369C10.6966 17.1824 10.8714 18.6357 10.5148 20.0047L9.70622 23.0222C9.52317 23.7054 9.619 24.4332 9.97262 25.0457C10.3262 25.6582 10.9087 26.1051 11.5918 26.2882C12.275 26.4712 13.0029 26.3754 13.6153 26.0218C14.2278 25.6682 14.6748 25.0857 14.8578 24.4026L15.6663 21.3851C16.0325 20.0186 16.9246 18.858 18.1239 18.1068C21.417 16.0477 27.9344 11.6611 28.7043 8.7878" stroke="#B09880" stroke-width="2" stroke-linecap="round" stroke-linejoin="round"/>
</svg>
