<svg width="24" height="24" viewBox="0 0 24 24" fill="none" xmlns="http://www.w3.org/2000/svg">
<path d="M1 3.44531H5.88889M23 3.44531H10.7778M1 12.0009H15.6667M23 12.0009H20.5556M1 20.5564H3.44444M23 20.5564H8.33333" stroke="#B09880" stroke-width="2" stroke-linecap="round"/>
<path d="M8.33312 5.88889C9.68315 5.88889 10.7776 4.79447 10.7776 3.44444C10.7776 2.09441 9.68315 1 8.33312 1C6.98309 1 5.88867 2.09441 5.88867 3.44444C5.88867 4.79447 6.98309 5.88889 8.33312 5.88889Z" stroke="#B09880" stroke-width="2" stroke-linecap="round"/>
<path d="M18.1105 14.4436C19.4605 14.4436 20.5549 13.3492 20.5549 11.9991C20.5549 10.6491 19.4605 9.55469 18.1105 9.55469C16.7604 9.55469 15.666 10.6491 15.666 11.9991C15.666 13.3492 16.7604 14.4436 18.1105 14.4436Z" stroke="#B09880" stroke-width="2" stroke-linecap="round"/>
<path d="M5.88976 23.0002C7.23979 23.0002 8.3342 21.9058 8.3342 20.5558C8.3342 19.2057 7.23979 18.1113 5.88976 18.1113C4.53973 18.1113 3.44531 19.2057 3.44531 20.5558C3.44531 21.9058 4.53973 23.0002 5.88976 23.0002Z" stroke="#B09880" stroke-width="2" stroke-linecap="round"/>
</svg>
