<svg width="31" height="31" viewBox="0 0 31 31" fill="none" xmlns="http://www.w3.org/2000/svg">
<path d="M15.6354 8.5969C16.0536 8.47726 16.4965 8.47353 16.9166 8.58612C17.3368 8.6987 17.7185 8.92336 18.0209 9.23608L21.4118 12.7436C21.5556 12.8926 21.6585 13.0762 21.7103 13.2767C21.7622 13.4771 21.7613 13.6876 21.7078 13.8876L20.3716 18.8741C20.2644 19.2744 20.0553 19.6402 19.7647 19.9357C19.4741 20.2312 19.112 20.4464 18.7135 20.5604L14.6771 21.7151C14.2589 21.8347 13.816 21.8384 13.3959 21.7258C12.9757 21.6133 12.594 21.3886 12.2917 21.0759L9.37338 18.0577C9.0853 17.7598 8.87928 17.3923 8.77538 16.9911C8.67149 16.5899 8.67326 16.1686 8.78054 15.7683L10.1167 10.7818C10.1704 10.5817 10.2751 10.399 10.4205 10.2513C10.5658 10.1037 10.7469 9.99624 10.9462 9.93938L15.6354 8.5969Z" stroke="#B09880" stroke-width="2" stroke-linecap="round" stroke-linejoin="round"/>
<path d="M10.3008 10.125L15.2394 14.8759M15.2394 14.8759L21.8919 13.2308M15.2394 14.8759L13.6117 20.9508" stroke="#B09880" stroke-width="2" stroke-linejoin="round"/>
<path d="M11.3083 1.70327L8.9901 1.0821C8.37527 0.91736 7.72017 1.0036 7.16893 1.32186C6.61769 1.64012 6.21545 2.16433 6.05071 2.77916L5.42954 5.09738M19.006 28.6125L21.3242 29.2336C21.939 29.3984 22.5941 29.3121 23.1454 28.9939C23.6966 28.6756 24.0989 28.1514 24.2636 27.5366L24.8848 25.2184M28.6118 11.309L29.2329 8.99082C29.3977 8.37599 29.3114 7.72089 28.9932 7.16965C28.6749 6.61841 28.1507 6.21617 27.5359 6.05143L25.2177 5.43026M1.70255 19.0067L1.08138 21.3249C0.91664 21.9398 1.00288 22.5949 1.32114 23.1461C1.6394 23.6973 2.16361 24.0996 2.77844 24.2643L5.09666 24.8855" stroke="#B09880" stroke-width="2" stroke-linecap="round" stroke-linejoin="round"/>
</svg>
